<svg width="536" height="1493.931640625" xmlns="http://www.w3.org/2000/svg"><defs id="defs_1"></defs><path opacity="1" stroke-width="1" stroke-opacity="1" fill-opacity="1" d="M 0,0 l 536,0 l 0,1493.931640625 l-536 0 z" fill="#FFFFFF" stroke="none"></path><g opacity="1" transform="matrix(1,0,0,1,15,15)"><g opacity="1" class="activity__keyword"><circle opacity="1" stroke-width="1" stroke-opacity="1" fill-opacity="1" cx="253" cy="10" r="10" fill="#3b4044" stroke="none"></circle></g><g opacity="1"><path opacity="1" stroke-width="1" stroke-opacity="1" fill-opacity="1" fill="#fdb05e" stroke="#3b4044" d="m 0 16.64111328125l 12 16.64111328125l 276 0l 12 -16.64111328125l -12 -16.64111328125l -276 0Z" class="activity__decision-bg" transform="matrix(1,0,0,1,103,50)"></path><text alignment-baseline="central" text-anchor="middle" opacity="1" stroke-width="1" stroke-opacity="1" fill-opacity="1" x="253" y="66.64111328125" font-size="14" font-family="Source Code Pro, sans-serif" font-style="normal" font-weight="normal" font-variant="normal" width="280" height="13.2822265625" fill="#3b4044" paint-order="stroke" style="stroke-linecap:butt; stroke-linejoin:miter;" stroke="none">1. Parse-URL including function composition</text></g><path opacity="1" stroke-width="1" stroke-opacity="1" fill-opacity="1" width="20" height="20" d="m 243 183.638671875l 10 10l 10 -10l -10 -10Z" fill="#fdb05e" stroke="#3b4044" class="activity__while-end"></path><g opacity="1"><path opacity="1" stroke-width="1" stroke-opacity="1" fill-opacity="1" d="M 115.75,113.2822265625 l 143,0 l 0,30.3564453125 l-143 0 z" fill="#fdb05e" stroke="#3b4044"></path><text alignment-baseline="central" text-anchor="middle" opacity="1" stroke-width="1" stroke-opacity="1" fill-opacity="1" x="187.25" y="128.46044921875" font-size="14" font-family="Source Code Pro, sans-serif" font-style="normal" font-weight="normal" font-variant="normal" width="123" height="10.3564453125" fill="#3b4044" paint-order="stroke" style="stroke-linecap:butt; stroke-linejoin:miter;" stroke="none">show errors to user</text></g><g opacity="1"><path opacity="1" stroke-width="1" stroke-opacity="1" fill-opacity="1" fill="#fdb05e" stroke="#3b4044" d="m 0 16.658203125l 12 16.658203125l 266 0l 12 -16.658203125l -12 -16.658203125l -266 0Z" class="activity__decision-bg" transform="matrix(1,0,0,1,108,223.638671875)"></path><text alignment-baseline="central" text-anchor="middle" opacity="1" stroke-width="1" stroke-opacity="1" fill-opacity="1" x="253" y="240.296875" font-size="14" font-family="Source Code Pro, sans-serif" font-style="normal" font-weight="normal" font-variant="normal" width="270" height="13.31640625" fill="#3b4044" paint-order="stroke" style="stroke-linecap:butt; stroke-linejoin:miter;" stroke="none">2. Check-Expansion-Availability Has Errors</text></g><path opacity="1" stroke-width="1" stroke-opacity="1" fill-opacity="1" width="20" height="20" d="m 243 357.3115234375l 10 10l 10 -10l -10 -10Z" fill="#fdb05e" stroke="#3b4044" class="activity__while-end"></path><g opacity="1"><path opacity="1" stroke-width="1" stroke-opacity="1" fill-opacity="1" d="M 115.75,286.955078125 l 143,0 l 0,30.3564453125 l-143 0 z" fill="#fdb05e" stroke="#3b4044"></path><text alignment-baseline="central" text-anchor="middle" opacity="1" stroke-width="1" stroke-opacity="1" fill-opacity="1" x="187.25" y="302.13330078125" font-size="14" font-family="Source Code Pro, sans-serif" font-style="normal" font-weight="normal" font-variant="normal" width="123" height="10.3564453125" fill="#3b4044" paint-order="stroke" style="stroke-linecap:butt; stroke-linejoin:miter;" stroke="none">show errors to user</text></g><g opacity="1"><path opacity="1" stroke-width="1" stroke-opacity="1" fill-opacity="1" fill="#fdb05e" stroke="#3b4044" d="m 0 16.6171875l 12 16.6171875l 296 0l 12 -16.6171875l -12 -16.6171875l -296 0Z" class="activity__decision-bg" transform="matrix(1,0,0,1,93,397.3115234375)"></path><text alignment-baseline="central" text-anchor="middle" opacity="1" stroke-width="1" stroke-opacity="1" fill-opacity="1" x="253" y="413.9287109375" font-size="14" font-family="Source Code Pro, sans-serif" font-style="normal" font-weight="normal" font-variant="normal" width="300" height="13.234375" fill="#3b4044" paint-order="stroke" style="stroke-linecap:butt; stroke-linejoin:miter;" stroke="none">3. Inputs Given are invalid for all used functions</text></g><path opacity="1" stroke-width="1" stroke-opacity="1" fill-opacity="1" width="20" height="20" d="m 243 530.90234375l 10 10l 10 -10l -10 -10Z" fill="#fdb05e" stroke="#3b4044" class="activity__while-end"></path><g opacity="1"><path opacity="1" stroke-width="1" stroke-opacity="1" fill-opacity="1" d="M 115.75,460.5458984375 l 143,0 l 0,30.3564453125 l-143 0 z" fill="#fdb05e" stroke="#3b4044"></path><text alignment-baseline="central" text-anchor="middle" opacity="1" stroke-width="1" stroke-opacity="1" fill-opacity="1" x="187.25" y="475.72412109375" font-size="14" font-family="Source Code Pro, sans-serif" font-style="normal" font-weight="normal" font-variant="normal" width="123" height="10.3564453125" fill="#3b4044" paint-order="stroke" style="stroke-linecap:butt; stroke-linejoin:miter;" stroke="none">show errors to user</text></g><g opacity="1"><path opacity="1" stroke-width="2" stroke-opacity="1" fill-opacity="1" d="M 6,570.90234375 l 490,0 a 2,2,0,0,1,2,2 l 0,402.576171875 a 2,2,0,0,1,-2,2 l -490,0 a 2,2,0,0,1,-2,-2 l 0,-402.576171875 a 2,2,0,0,1,2,-2 z" fill="#fff" stroke="#3b4044" class="activity__group-rect"></path><text alignment-baseline="after-edge" text-anchor="left" opacity="1" stroke-width="1" stroke-opacity="1" fill-opacity="1" x="9" y="589.224609375" font-size="14" font-family="Source Code Pro, sans-serif" font-style="normal" font-weight="bold" font-variant="normal" fill="#3b4044" paint-order="stroke" style="stroke-linecap:butt; stroke-linejoin:miter;" stroke="none" class="activity__group-rect">4.Discover</text></g><g opacity="1"><path opacity="1" stroke-width="1" stroke-opacity="1" fill-opacity="1" d="M 170,585.90234375 l 166,0 l 0,33.1728515625 l-166 0 z" fill="#fdb05e" stroke="#3b4044"></path><text alignment-baseline="central" text-anchor="middle" opacity="1" stroke-width="1" stroke-opacity="1" fill-opacity="1" x="253" y="602.48876953125" font-size="14" font-family="Source Code Pro, sans-serif" font-style="normal" font-weight="normal" font-variant="normal" width="146" height="13.1728515625" fill="#3b4044" paint-order="stroke" style="stroke-linecap:butt; stroke-linejoin:miter;" stroke="none">5. Fetch the given URL</text></g><g opacity="1"><path opacity="1" stroke-width="2" stroke-opacity="1" fill-opacity="1" d="M 70,649.0751953125 l 366,0 a 2,2,0,0,1,2,2 l 0,309.4033203125 a 2,2,0,0,1,-2,2 l -366,0 a 2,2,0,0,1,-2,-2 l 0,-309.4033203125 a 2,2,0,0,1,2,-2 z" fill="#fff" stroke="#3b4044" class="activity__group-rect"></path><text alignment-baseline="after-edge" text-anchor="left" opacity="1" stroke-width="1" stroke-opacity="1" fill-opacity="1" x="73" y="670.4873046875" font-size="14" font-family="Source Code Pro, sans-serif" font-style="normal" font-weight="bold" font-variant="normal" fill="#3b4044" paint-order="stroke" style="stroke-linecap:butt; stroke-linejoin:miter;" stroke="none" class="activity__group-rect">Strategy</text></g><g opacity="1"><path opacity="1" stroke-width="1" stroke-opacity="1" fill-opacity="1" d="M 154,664.0751953125 l 198,0 l 0,33.1865234375 l-198 0 z" fill="#fdb05e" stroke="#3b4044"></path><text alignment-baseline="central" text-anchor="middle" opacity="1" stroke-width="1" stroke-opacity="1" fill-opacity="1" x="253" y="680.66845703125" font-size="14" font-family="Source Code Pro, sans-serif" font-style="normal" font-weight="normal" font-variant="normal" width="178" height="13.1865234375" fill="#3b4044" paint-order="stroke" style="stroke-linecap:butt; stroke-linejoin:miter;" stroke="none">5a. check for discovery links</text></g><g opacity="1"><path opacity="1" stroke-width="1" stroke-opacity="1" fill-opacity="1" d="M 128,727.26171875 l 250,0 l 0,33.31640625 l-250 0 z" fill="#fdb05e" stroke="#3b4044"></path><text alignment-baseline="central" text-anchor="middle" opacity="1" stroke-width="1" stroke-opacity="1" fill-opacity="1" x="253" y="743.919921875" font-size="14" font-family="Source Code Pro, sans-serif" font-style="normal" font-weight="normal" font-variant="normal" width="230" height="13.31640625" fill="#3b4044" paint-order="stroke" style="stroke-linecap:butt; stroke-linejoin:miter;" stroke="none">5b. check for discovery links @index</text></g><g opacity="1"><path opacity="1" stroke-width="1" stroke-opacity="1" fill-opacity="1" d="M 155.5,790.578125 l 195,0 l 0,33.1865234375 l-195 0 z" fill="#fdb05e" stroke="#3b4044"></path><text alignment-baseline="central" text-anchor="middle" opacity="1" stroke-width="1" stroke-opacity="1" fill-opacity="1" x="253" y="807.17138671875" font-size="14" font-family="Source Code Pro, sans-serif" font-style="normal" font-weight="normal" font-variant="normal" width="175" height="13.1865234375" fill="#3b4044" paint-order="stroke" style="stroke-linecap:butt; stroke-linejoin:miter;" stroke="none">5c try normal feed locaitons</text></g><g opacity="1"><path opacity="1" stroke-width="1" stroke-opacity="1" fill-opacity="1" d="M 174,853.7646484375 l 158,0 l 0,33.1044921875 l-158 0 z" fill="#fdb05e" stroke="#3b4044"></path><text alignment-baseline="central" text-anchor="middle" opacity="1" stroke-width="1" stroke-opacity="1" fill-opacity="1" x="253" y="870.31689453125" font-size="14" font-family="Source Code Pro, sans-serif" font-style="normal" font-weight="normal" font-variant="normal" width="138" height="13.1044921875" fill="#3b4044" paint-order="stroke" style="stroke-linecap:butt; stroke-linejoin:miter;" stroke="none">5d fallback to sitemap</text></g><g opacity="1"><path opacity="1" stroke-width="1" stroke-opacity="1" fill-opacity="1" d="M 204,916.869140625 l 98,0 l 0,30.609375 l-98 0 z" fill="#fdb05e" stroke="#3b4044"></path><text alignment-baseline="central" text-anchor="middle" opacity="1" stroke-width="1" stroke-opacity="1" fill-opacity="1" x="253" y="932.173828125" font-size="14" font-family="Source Code Pro, sans-serif" font-style="normal" font-weight="normal" font-variant="normal" width="78" height="10.609375" fill="#3b4044" paint-order="stroke" style="stroke-linecap:butt; stroke-linejoin:miter;" stroke="none">Show Errors</text></g><g opacity="1"><path opacity="1" stroke-width="2" stroke-opacity="1" fill-opacity="1" d="M 2,1007.478515625 l 502,0 a 2,2,0,0,1,2,2 l 0,339.3486328125 a 2,2,0,0,1,-2,2 l -502,0 a 2,2,0,0,1,-2,-2 l 0,-339.3486328125 a 2,2,0,0,1,2,-2 z" fill="#fff" stroke="#3b4044" class="activity__group-rect"></path><text alignment-baseline="after-edge" text-anchor="left" opacity="1" stroke-width="1" stroke-opacity="1" fill-opacity="1" x="5" y="1025.8212890625" font-size="14" font-family="Source Code Pro, sans-serif" font-style="normal" font-weight="bold" font-variant="normal" fill="#3b4044" paint-order="stroke" style="stroke-linecap:butt; stroke-linejoin:miter;" stroke="none" class="activity__group-rect">WithValidURL</text></g><g opacity="1"><path opacity="1" stroke-width="1" stroke-opacity="1" fill-opacity="1" d="M 176,1022.478515625 l 154,0 l 0,30.4521484375 l-154 0 z" fill="#fdb05e" stroke="#3b4044"></path><text alignment-baseline="central" text-anchor="middle" opacity="1" stroke-width="1" stroke-opacity="1" fill-opacity="1" x="253" y="1037.70458984375" font-size="14" font-family="Source Code Pro, sans-serif" font-style="normal" font-weight="normal" font-variant="normal" width="134" height="10.4521484375" fill="#3b4044" paint-order="stroke" style="stroke-linecap:butt; stroke-linejoin:miter;" stroke="none">with a valid feed URL</text></g><g opacity="1"><path opacity="1" stroke-width="1" stroke-opacity="1" fill-opacity="1" d="M 60,1082.9306640625 l 386,0 l 0,33.0771484375 l-386 0 z" fill="#fdb05e" stroke="#3b4044"></path><text alignment-baseline="central" text-anchor="middle" opacity="1" stroke-width="1" stroke-opacity="1" fill-opacity="1" x="253" y="1099.46923828125" font-size="14" font-family="Source Code Pro, sans-serif" font-style="normal" font-weight="normal" font-variant="normal" width="366" height="13.0771484375" fill="#3b4044" paint-order="stroke" style="stroke-linecap:butt; stroke-linejoin:miter;" stroke="none">6. rewrite the url to be the explict URL based on discovery</text></g><g opacity="1"><path opacity="1" stroke-width="2" stroke-opacity="1" fill-opacity="1" d="M 65,1146.0078125 l 376,0 a 2,2,0,0,1,2,2 l 0,185.8193359375 a 2,2,0,0,1,-2,2 l -376,0 a 2,2,0,0,1,-2,-2 l 0,-185.8193359375 a 2,2,0,0,1,2,-2 z" fill="#fff" stroke="#3b4044" class="activity__group-rect"></path><text alignment-baseline="after-edge" text-anchor="left" opacity="1" stroke-width="1" stroke-opacity="1" fill-opacity="1" x="68" y="1164.6171875" font-size="14" font-family="Source Code Pro, sans-serif" font-style="normal" font-weight="bold" font-variant="normal" fill="#3b4044" paint-order="stroke" style="stroke-linecap:butt; stroke-linejoin:miter;" stroke="none" class="activity__group-rect">HOTPATH</text></g><g opacity="1"><path opacity="1" stroke-width="1" stroke-opacity="1" fill-opacity="1" d="M 177.5,1161.0078125 l 151,0 l 0,33.31640625 l-151 0 z" fill="#fdb05e" stroke="#3b4044"></path><text alignment-baseline="central" text-anchor="middle" opacity="1" stroke-width="1" stroke-opacity="1" fill-opacity="1" x="253" y="1177.666015625" font-size="14" font-family="Source Code Pro, sans-serif" font-style="normal" font-weight="normal" font-variant="normal" width="131" height="13.31640625" fill="#3b4044" paint-order="stroke" style="stroke-linecap:butt; stroke-linejoin:miter;" stroke="none">7a. To CityFeed AST</text></g><g opacity="1"><path opacity="1" stroke-width="1" stroke-opacity="1" fill-opacity="1" d="M 176,1224.32421875 l 154,0 l 0,33.1865234375 l-154 0 z" fill="#fdb05e" stroke="#3b4044"></path><text alignment-baseline="central" text-anchor="middle" opacity="1" stroke-width="1" stroke-opacity="1" fill-opacity="1" x="253" y="1240.91748046875" font-size="14" font-family="Source Code Pro, sans-serif" font-style="normal" font-weight="normal" font-variant="normal" width="134" height="13.1865234375" fill="#3b4044" paint-order="stroke" style="stroke-linecap:butt; stroke-linejoin:miter;" stroke="none">7b. Apply Transforms</text></g><g opacity="1"><path opacity="1" stroke-width="1" stroke-opacity="1" fill-opacity="1" d="M 123,1287.5107421875 l 260,0 l 0,33.31640625 l-260 0 z" fill="#fdb05e" stroke="#3b4044"></path><text alignment-baseline="central" text-anchor="middle" opacity="1" stroke-width="1" stroke-opacity="1" fill-opacity="1" x="253" y="1304.1689453125" font-size="14" font-family="Source Code Pro, sans-serif" font-style="normal" font-weight="normal" font-variant="normal" width="240" height="13.31640625" fill="#3b4044" paint-order="stroke" style="stroke-linecap:butt; stroke-linejoin:miter;" stroke="none">7c. From CityFeed AST to Output Fmt</text></g><g opacity="1"><path opacity="1" stroke-width="1" stroke-opacity="1" fill-opacity="1" d="M 162.5,1380.8271484375 l 181,0 l 0,33.1044921875 l-181 0 z" fill="#fdb05e" stroke="#3b4044"></path><text alignment-baseline="central" text-anchor="middle" opacity="1" stroke-width="1" stroke-opacity="1" fill-opacity="1" x="253" y="1397.37939453125" font-size="14" font-family="Source Code Pro, sans-serif" font-style="normal" font-weight="normal" font-variant="normal" width="161" height="13.1044921875" fill="#3b4044" paint-order="stroke" style="stroke-linecap:butt; stroke-linejoin:miter;" stroke="none">8. respond with feed data</text></g><g opacity="1" class="activity__keyword"><circle opacity="1" stroke-width="1" stroke-opacity="1" fill-opacity="1" cx="253" cy="1453.931640625" r="10" stroke="#3b4044" fill="none"></circle><circle opacity="1" stroke-width="1" stroke-opacity="1" fill-opacity="1" cx="253" cy="1453.931640625" r="6" fill="#3b4044" stroke="none"></circle></g><g opacity="1"><path opacity="1" stroke-width="1" stroke-opacity="1" fill-opacity="1" d="M202.64189210043054,83.2822265625L195.07657675035878,85.7822265625C187.51126140028703,88.2822265625,172.38063070014354,93.2822265625,167.30055117241622,98.2822265625C162.22047164468893,103.2822265625,167.19094328937788,108.2822265625,169.67617911172235,110.7822265625L172.1614149340668,113.2822265625" stroke="#fdb05e" stroke-linejoin="round" fill="none"></path><path opacity="1" stroke-width="1" stroke-opacity="1" fill-opacity="1" stroke="#fdb05e" stroke-linecap="round" d="M 165.2332117037913 109.2822265625L 172.1614149340668 113.2822265625L 165.2332117037913 117.2822265625" fill="none" transform="matrix(0.7050095356689658,0.7091978247399164,-0.7091978247399164,0.7050095356689658,131.1254843911076,-88.67932436126108)"></path><path opacity="1" stroke-width="1" stroke-opacity="1" fill-opacity="1" d="M205.23056387023703,113.2822265625L208.19213655853085,110.7822265625C211.15370924682466,108.2822265625,217.07685462341234,103.2822265625,222.40876110285137,98.2822265625C227.7406675822904,93.2822265625,232.48133516458083,88.2822265625,234.851668955726,85.7822265625L237.2220027468712,83.2822265625" stroke="#fdb05e" stroke-linejoin="round" fill="none"></path><path opacity="1" stroke-width="1" stroke-opacity="1" fill-opacity="1" stroke="#fdb05e" stroke-linecap="round" d="M 230.2937995165957 79.2822265625L 237.2220027468712 83.2822265625L 230.2937995165957 87.2822265625" fill="none" transform="matrix(0.6880371922615479,-0.7256754247353604,0.7256754247353604,0.6880371922615479,13.568576900604029,198.12713483305598)"></path><path opacity="1" stroke-width="1" stroke-opacity="1" fill-opacity="1" d="M287.58011064644063,83.2822265625L292.7750922053672,85.7822265625C297.9700737642938,88.2822265625,308.36003688214686,93.2822265625,313.5550184410734,100.81193033854167C318.75,108.34163411458333,318.75,118.40104166666667,318.75,128.46044921875C318.75,138.51985677083334,318.75,148.57926432291666,309.4583333333333,157.14192120415478C300.1666666666667,165.7045780853929,281.5833333333333,172.7704842957858,272.2916666666667,176.30343740098226L263,179.8363905061787" stroke="#fdb05e" stroke-linejoin="round" fill="none"></path><path opacity="1" stroke-width="1" stroke-opacity="1" fill-opacity="1" stroke="#fdb05e" stroke-linecap="round" d="M 256.0717967697245 175.8363905061787L 263 179.8363905061787L 256.0717967697245 183.8363905061787" fill="none" transform="matrix(-0.9347127544910674,0.3554040891601019,-0.3554040891601019,-0.9347127544910674,572.7440429968397,254.46048298483345)"></path><path opacity="1" stroke-width="1" stroke-opacity="1" fill-opacity="1" d="M253,20L253,22.5C253,25,253,30,253,35C253,40,253,45,253,47.5L253,50" stroke="#fdb05e" stroke-linejoin="round" fill="none"></path><path opacity="1" stroke-width="1" stroke-opacity="1" fill-opacity="1" stroke="#fdb05e" stroke-linecap="round" d="M 246.0717967697245 46L 253 50L 246.0717967697245 54" fill="none" transform="matrix(6.123233995736766e-17,1,-1,6.123233995736766e-17,303,-203)"></path><path opacity="1" stroke-width="1" stroke-opacity="1" fill-opacity="1" d="M202.61738848787712,256.955078125L195.05615707323093,259.455078125C187.49492565858475,261.955078125,172.3724628292924,266.955078125,167.29646723699065,271.955078125C162.22047164468893,276.955078125,167.19094328937788,281.955078125,169.67617911172235,284.455078125L172.1614149340668,286.955078125" stroke="#fdb05e" stroke-linejoin="round" fill="none"></path><path opacity="1" stroke-width="1" stroke-opacity="1" fill-opacity="1" stroke="#fdb05e" stroke-linecap="round" d="M 165.2332117037913 282.955078125L 172.1614149340668 286.955078125L 165.2332117037913 290.955078125" fill="none" transform="matrix(0.7050095356689658,0.7091978247399164,-0.7091978247399164,0.7050095356689658,254.29389293561098,-37.447489237144396)"></path><path opacity="1" stroke-width="1" stroke-opacity="1" fill-opacity="1" d="M205.23056387023703,286.955078125L208.19213655853085,284.455078125C211.15370924682466,281.955078125,217.07685462341234,276.955078125,222.40748154083815,271.955078125C227.73810845826392,266.955078125,232.47621691652785,261.955078125,234.8452711456598,259.455078125L237.21432537479177,256.955078125" stroke="#fdb05e" stroke-linejoin="round" fill="none"></path><path opacity="1" stroke-width="1" stroke-opacity="1" fill-opacity="1" stroke="#fdb05e" stroke-linecap="round" d="M 230.28612214451627 252.955078125L 237.21432537479177 256.955078125L 230.28612214451627 260.955078125" fill="none" transform="matrix(0.6878415263988149,-0.7258608920181252,0.7258608920181252,0.6878415263988149,-112.46518049106965,252.39530678759743)"></path><path opacity="1" stroke-width="1" stroke-opacity="1" fill-opacity="1" d="M287.5969368869147,256.955078125L292.7891140724289,259.455078125C297.98129125794316,261.955078125,308.36564562897155,266.955078125,313.55782281448575,274.4847819010417C318.75,282.0144856770833,318.75,292.0738932291667,318.75,302.13330078125C318.75,312.1927083333333,318.75,322.2521158854167,309.4583333333333,330.8147727666548C300.1666666666667,339.37742964789294,281.5833333333333,346.4433358582858,272.2916666666667,349.9762889634822L263,353.5092420686787" stroke="#fdb05e" stroke-linejoin="round" fill="none"></path><path opacity="1" stroke-width="1" stroke-opacity="1" fill-opacity="1" stroke="#fdb05e" stroke-linecap="round" d="M 256.0717967697245 349.5092420686787L 263 353.5092420686787L 256.0717967697245 357.5092420686787" fill="none" transform="matrix(-0.9347127544910674,0.3554040891601019,-0.3554040891601019,-0.9347127544910674,634.4680846182475,590.4675640116361)"></path><path opacity="1" stroke-width="1" stroke-opacity="1" fill-opacity="1" d="M253,193.638671875L253,196.138671875C253,198.638671875,253,203.638671875,253,208.638671875C253,213.638671875,253,218.638671875,253,221.138671875L253,223.638671875" stroke="#fdb05e" stroke-linejoin="round" fill="none"></path><path opacity="1" stroke-width="1" stroke-opacity="1" fill-opacity="1" stroke="#fdb05e" stroke-linecap="round" d="M 246.0717967697245 219.638671875L 253 223.638671875L 246.0717967697245 227.638671875" fill="none" transform="matrix(6.123233995736766e-17,1,-1,6.123233995736766e-17,476.638671875,-29.361328125)"></path><path opacity="1" stroke-width="1" stroke-opacity="1" fill-opacity="1" d="M202.67624166048927,430.5458984375L195.10520138374105,433.0458984375C187.53416110699285,435.5458984375,172.3920805534964,440.5458984375,167.30627609909268,445.5458984375C162.22047164468893,450.5458984375,167.19094328937788,455.5458984375,169.67617911172235,458.0458984375L172.1614149340668,460.5458984375" stroke="#fdb05e" stroke-linejoin="round" fill="none"></path><path opacity="1" stroke-width="1" stroke-opacity="1" fill-opacity="1" stroke="#fdb05e" stroke-linecap="round" d="M 165.2332117037913 456.5458984375L 172.1614149340668 460.5458984375L 165.2332117037913 464.5458984375" fill="none" transform="matrix(0.7050095356689658,0.7091978247399164,-0.7091978247399164,0.7050095356689658,377.4041250960537,13.76014745044506)"></path><path opacity="1" stroke-width="1" stroke-opacity="1" fill-opacity="1" d="M202.3385850659332,460.5458984375L204.82382088827765,458.0458984375C207.30905671062214,455.5458984375,212.27952835531107,450.5458984375,217.59154945069727,445.5458984375C222.90357054608353,440.5458984375,228.55714109216706,435.5458984375,231.38392636520882,433.0458984375L234.21071163825056,430.5458984375" stroke="#fdb05e" stroke-linejoin="round" fill="none"></path><path opacity="1" stroke-width="1" stroke-opacity="1" fill-opacity="1" stroke="#fdb05e" stroke-linecap="round" d="M 227.28250840797506 426.5458984375L 234.21071163825056 430.5458984375L 227.28250840797506 434.5458984375" fill="none" transform="matrix(0.7490777940789342,-0.6624820438455957,0.6624820438455957,0.7490777940789342,-226.46025835160086,263.19391752284434)"></path><path opacity="1" stroke-width="1" stroke-opacity="1" fill-opacity="1" d="M287.5565233506301,430.5458984375L292.755436125525,433.0458984375C297.95434890042003,435.5458984375,308.35217445021004,440.5458984375,313.551087225105,448.0756022135417C318.75,455.6053059895833,318.75,465.6647135416667,318.75,475.72412109375C318.75,485.7835286458333,318.75,495.8429361979167,309.4583333333333,504.4055930791548C300.1666666666667,512.9682499603929,281.5833333333333,520.0341561707859,272.2916666666667,523.5671092759823L263,527.1000623811788" stroke="#fdb05e" stroke-linejoin="round" fill="none"></path><path opacity="1" stroke-width="1" stroke-opacity="1" fill-opacity="1" stroke="#fdb05e" stroke-linecap="round" d="M 256.0717967697245 523.1000623811788L 263 527.1000623811788L 256.0717967697245 531.1000623811788" fill="none" transform="matrix(-0.934712754491067,0.3554040891601027,-0.3554040891601027,-0.934712754491067,696.1629719979668,926.3159381327966)"></path><path opacity="1" stroke-width="1" stroke-opacity="1" fill-opacity="1" d="M253,367.3115234375L253,369.8115234375C253,372.3115234375,253,377.3115234375,253,382.3115234375C253,387.3115234375,253,392.3115234375,253,394.8115234375L253,397.3115234375" stroke="#fdb05e" stroke-linejoin="round" fill="none"></path><path opacity="1" stroke-width="1" stroke-opacity="1" fill-opacity="1" stroke="#fdb05e" stroke-linecap="round" d="M 246.0717967697245 393.3115234375L 253 397.3115234375L 246.0717967697245 401.3115234375" fill="none" transform="matrix(6.123233995736766e-17,1,-1,6.123233995736766e-17,650.3115234375,144.31152343749997)"></path><path opacity="1" stroke-width="1" stroke-opacity="1" fill-opacity="1" d="M253,540.90234375L253,543.40234375C253,545.90234375,253,550.90234375,253,555.90234375C253,560.90234375,253,565.90234375,253,570.90234375C253,575.90234375,253,580.90234375,253,583.40234375L253,585.90234375" stroke="#fdb05e" stroke-linejoin="round" fill="none"></path><path opacity="1" stroke-width="1" stroke-opacity="1" fill-opacity="1" stroke="#fdb05e" stroke-linecap="round" d="M 246.0717967697245 581.90234375L 253 585.90234375L 246.0717967697245 589.90234375" fill="none" transform="matrix(6.123233995736766e-17,1,-1,6.123233995736766e-17,838.90234375,332.90234375)"></path><path opacity="1" stroke-width="1" stroke-opacity="1" fill-opacity="1" d="M253,619.0751953125L253,621.5751953125C253,624.0751953125,253,629.0751953125,253,634.0751953125C253,639.0751953125,253,644.0751953125,253,649.0751953125C253,654.0751953125,253,659.0751953125,253,661.5751953125L253,664.0751953125" stroke="#fdb05e" stroke-linejoin="round" fill="none"></path><path opacity="1" stroke-width="1" stroke-opacity="1" fill-opacity="1" stroke="#fdb05e" stroke-linecap="round" d="M 246.0717967697245 660.0751953125L 253 664.0751953125L 246.0717967697245 668.0751953125" fill="none" transform="matrix(6.123233995736766e-17,1,-1,6.123233995736766e-17,917.0751953125,411.0751953125)"></path><path opacity="1" stroke-width="1" stroke-opacity="1" fill-opacity="1" d="M253,697.26171875L253,699.76171875C253,702.26171875,253,707.26171875,253,712.26171875C253,717.26171875,253,722.26171875,253,724.76171875L253,727.26171875" stroke="#fdb05e" stroke-linejoin="round" fill="none"></path><path opacity="0.85" stroke-width="1" stroke-opacity="1" fill-opacity="1" d="M 216,704.03564453125 l 74,0 l 0,12.4521484375 l-74 0 z" fill="#f8f8f2" stroke="none" class="label-bg"></path><text alignment-baseline="central" text-anchor="middle" opacity="1" stroke-width="1" stroke-opacity="1" fill-opacity="1" x="253" y="709.26171875" font-size="14" font-family="Source Code Pro, sans-serif" font-style="normal" font-weight="normal" font-variant="normal" id="11-13" fill="#3b4044" paint-order="stroke" style="stroke-linecap:butt; stroke-linejoin:miter;" stroke="none" class="activity__edge-label">None found</text><path opacity="1" stroke-width="1" stroke-opacity="1" fill-opacity="1" stroke="#fdb05e" stroke-linecap="round" d="M 246.0717967697245 723.26171875L 253 727.26171875L 246.0717967697245 731.26171875" fill="none" transform="matrix(6.123233995736766e-17,1,-1,6.123233995736766e-17,980.26171875,474.26171874999994)"></path><path opacity="1" stroke-width="1" stroke-opacity="1" fill-opacity="1" d="M253,760.578125L253,763.078125C253,765.578125,253,770.578125,253,775.578125C253,780.578125,253,785.578125,253,788.078125L253,790.578125" stroke="#fdb05e" stroke-linejoin="round" fill="none"></path><path opacity="0.85" stroke-width="1" stroke-opacity="1" fill-opacity="1" d="M 213.5,767.40673828125 l 79,0 l 0,12.3427734375 l-79 0 z" fill="#f8f8f2" stroke="none" class="label-bg"></path><text alignment-baseline="central" text-anchor="middle" opacity="1" stroke-width="1" stroke-opacity="1" fill-opacity="1" x="253" y="772.578125" font-size="14" font-family="Source Code Pro, sans-serif" font-style="normal" font-weight="normal" font-variant="normal" id="13-15" fill="#3b4044" paint-order="stroke" style="stroke-linecap:butt; stroke-linejoin:miter;" stroke="none" class="activity__edge-label">None Found</text><path opacity="1" stroke-width="1" stroke-opacity="1" fill-opacity="1" stroke="#fdb05e" stroke-linecap="round" d="M 246.0717967697245 786.578125L 253 790.578125L 246.0717967697245 794.578125" fill="none" transform="matrix(6.123233995736766e-17,1,-1,6.123233995736766e-17,1043.578125,537.578125)"></path><path opacity="1" stroke-width="1" stroke-opacity="1" fill-opacity="1" d="M253,823.7646484375L253,826.2646484375C253,828.7646484375,253,833.7646484375,253,838.7646484375C253,843.7646484375,253,848.7646484375,253,851.2646484375L253,853.7646484375" stroke="#fdb05e" stroke-linejoin="round" fill="none"></path><path opacity="0.85" stroke-width="1" stroke-opacity="1" fill-opacity="1" d="M 216,830.53857421875 l 74,0 l 0,12.4521484375 l-74 0 z" fill="#f8f8f2" stroke="none" class="label-bg"></path><text alignment-baseline="central" text-anchor="middle" opacity="1" stroke-width="1" stroke-opacity="1" fill-opacity="1" x="253" y="835.7646484375" font-size="14" font-family="Source Code Pro, sans-serif" font-style="normal" font-weight="normal" font-variant="normal" id="15-17" fill="#3b4044" paint-order="stroke" style="stroke-linecap:butt; stroke-linejoin:miter;" stroke="none" class="activity__edge-label">None found</text><path opacity="1" stroke-width="1" stroke-opacity="1" fill-opacity="1" stroke="#fdb05e" stroke-linecap="round" d="M 246.0717967697245 849.7646484375L 253 853.7646484375L 246.0717967697245 857.7646484375" fill="none" transform="matrix(6.123233995736766e-17,1,-1,6.123233995736766e-17,1106.7646484375,600.7646484375)"></path><path opacity="1" stroke-width="1" stroke-opacity="1" fill-opacity="1" d="M253,886.869140625L253,889.369140625C253,891.869140625,253,896.869140625,253,901.869140625C253,906.869140625,253,911.869140625,253,914.369140625L253,916.869140625" stroke="#fdb05e" stroke-linejoin="round" fill="none"></path><path opacity="0.85" stroke-width="1" stroke-opacity="1" fill-opacity="1" d="M 216,893.64306640625 l 74,0 l 0,12.4521484375 l-74 0 z" fill="#f8f8f2" stroke="none" class="label-bg"></path><text alignment-baseline="central" text-anchor="middle" opacity="1" stroke-width="1" stroke-opacity="1" fill-opacity="1" x="253" y="898.869140625" font-size="14" font-family="Source Code Pro, sans-serif" font-style="normal" font-weight="normal" font-variant="normal" id="17-19" fill="#3b4044" paint-order="stroke" style="stroke-linecap:butt; stroke-linejoin:miter;" stroke="none" class="activity__edge-label">None found</text><path opacity="1" stroke-width="1" stroke-opacity="1" fill-opacity="1" stroke="#fdb05e" stroke-linecap="round" d="M 246.0717967697245 912.869140625L 253 916.869140625L 246.0717967697245 920.869140625" fill="none" transform="matrix(6.123233995736766e-17,1,-1,6.123233995736766e-17,1169.869140625,663.869140625)"></path><path opacity="1" stroke-width="1" stroke-opacity="1" fill-opacity="1" d="M253,947.478515625L253,949.978515625C253,952.478515625,253,957.478515625,253,962.478515625C253,967.478515625,253,972.478515625,253,977.478515625C253,982.478515625,253,987.478515625,253,992.478515625C253,997.478515625,253,1002.478515625,253,1007.478515625C253,1012.478515625,253,1017.478515625,253,1019.978515625L253,1022.478515625" stroke="#fdb05e" stroke-linejoin="round" fill="none"></path><path opacity="1" stroke-width="1" stroke-opacity="1" fill-opacity="1" stroke="#fdb05e" stroke-linecap="round" d="M 246.0717967697245 1018.478515625L 253 1022.478515625L 246.0717967697245 1026.478515625" fill="none" transform="matrix(6.123233995736766e-17,1,-1,6.123233995736766e-17,1275.478515625,769.478515625)"></path><path opacity="1" stroke-width="1" stroke-opacity="1" fill-opacity="1" d="M253,1052.9306640625L253,1055.4306640625C253,1057.9306640625,253,1062.9306640625,253,1067.9306640625C253,1072.9306640625,253,1077.9306640625,253,1080.4306640625L253,1082.9306640625" stroke="#fdb05e" stroke-linejoin="round" fill="none"></path><path opacity="1" stroke-width="1" stroke-opacity="1" fill-opacity="1" stroke="#fdb05e" stroke-linecap="round" d="M 246.0717967697245 1078.9306640625L 253 1082.9306640625L 246.0717967697245 1086.9306640625" fill="none" transform="matrix(6.123233995736766e-17,1,-1,6.123233995736766e-17,1335.9306640625,829.9306640625)"></path><path opacity="1" stroke-width="1" stroke-opacity="1" fill-opacity="1" d="M253,1116.0078125L253,1118.5078125C253,1121.0078125,253,1126.0078125,253,1131.0078125C253,1136.0078125,253,1141.0078125,253,1146.0078125C253,1151.0078125,253,1156.0078125,253,1158.5078125L253,1161.0078125" stroke="#fdb05e" stroke-linejoin="round" fill="none"></path><path opacity="1" stroke-width="1" stroke-opacity="1" fill-opacity="1" stroke="#fdb05e" stroke-linecap="round" d="M 246.0717967697245 1157.0078125L 253 1161.0078125L 246.0717967697245 1165.0078125" fill="none" transform="matrix(6.123233995736766e-17,1,-1,6.123233995736766e-17,1414.0078125,908.0078124999999)"></path><path opacity="1" stroke-width="1" stroke-opacity="1" fill-opacity="1" d="M253,1194.32421875L253,1196.82421875C253,1199.32421875,253,1204.32421875,253,1209.32421875C253,1214.32421875,253,1219.32421875,253,1221.82421875L253,1224.32421875" stroke="#fdb05e" stroke-linejoin="round" fill="none"></path><path opacity="1" stroke-width="1" stroke-opacity="1" fill-opacity="1" stroke="#fdb05e" stroke-linecap="round" d="M 246.0717967697245 1220.32421875L 253 1224.32421875L 246.0717967697245 1228.32421875" fill="none" transform="matrix(6.123233995736766e-17,1,-1,6.123233995736766e-17,1477.32421875,971.3242187499999)"></path><path opacity="1" stroke-width="1" stroke-opacity="1" fill-opacity="1" d="M253,1257.5107421875L253,1260.0107421875C253,1262.5107421875,253,1267.5107421875,253,1272.5107421875C253,1277.5107421875,253,1282.5107421875,253,1285.0107421875L253,1287.5107421875" stroke="#fdb05e" stroke-linejoin="round" fill="none"></path><path opacity="1" stroke-width="1" stroke-opacity="1" fill-opacity="1" stroke="#fdb05e" stroke-linecap="round" d="M 246.0717967697245 1283.5107421875L 253 1287.5107421875L 246.0717967697245 1291.5107421875" fill="none" transform="matrix(6.123233995736766e-17,1,-1,6.123233995736766e-17,1540.5107421875,1034.5107421875)"></path><path opacity="1" stroke-width="1" stroke-opacity="1" fill-opacity="1" d="M253,1320.8271484375L253,1323.3271484375C253,1325.8271484375,253,1330.8271484375,253,1335.8271484375C253,1340.8271484375,253,1345.8271484375,253,1350.8271484375C253,1355.8271484375,253,1360.8271484375,253,1365.8271484375C253,1370.8271484375,253,1375.8271484375,253,1378.3271484375L253,1380.8271484375" stroke="#fdb05e" stroke-linejoin="round" fill="none"></path><path opacity="0.85" stroke-width="1" stroke-opacity="1" fill-opacity="1" d="M 250,1342.8173828125 l 6,0 l 0,6.01953125 l-6 0 z" fill="#f8f8f2" stroke="none" class="label-bg"></path><text alignment-baseline="central" text-anchor="middle" opacity="1" stroke-width="1" stroke-opacity="1" fill-opacity="1" x="253" y="1344.8271484375" font-size="14" font-family="Source Code Pro, sans-serif" font-style="normal" font-weight="normal" font-variant="normal" id="26-28" fill="#3b4044" paint-order="stroke" style="stroke-linecap:butt; stroke-linejoin:miter;" stroke="none" class="activity__edge-label">''</text><path opacity="1" stroke-width="1" stroke-opacity="1" fill-opacity="1" stroke="#fdb05e" stroke-linecap="round" d="M 246.0717967697245 1376.8271484375L 253 1380.8271484375L 246.0717967697245 1384.8271484375" fill="none" transform="matrix(6.123233995736766e-17,1,-1,6.123233995736766e-17,1633.8271484375,1127.8271484375)"></path><path opacity="1" stroke-width="1" stroke-opacity="1" fill-opacity="1" d="M253,1413.931640625L253,1416.431640625C253,1418.931640625,253,1423.931640625,253,1428.931640625C253,1433.931640625,253,1438.931640625,253,1441.431640625L253,1443.931640625" stroke="#fdb05e" stroke-linejoin="round" fill="none"></path><path opacity="1" stroke-width="1" stroke-opacity="1" fill-opacity="1" stroke="#fdb05e" stroke-linecap="round" d="M 246.0717967697245 1439.931640625L 253 1443.931640625L 246.0717967697245 1447.931640625" fill="none" transform="matrix(6.123233995736766e-17,1,-1,6.123233995736766e-17,1696.931640625,1190.931640625)"></path></g></g></svg>